<?xml version="1.0" encoding="UTF-8"?>
<svg version="1.1" xmlns="http://www.w3.org/2000/svg" width="800" height="800">
<path d="M0 0 C0.74757568 0.43755615 1.49515137 0.8751123 2.26538086 1.32592773 C3.13388672 1.82656738 4.00239258 2.32720703 4.8972168 2.84301758 C5.83210938 3.39296387 6.76700195 3.94291016 7.73022461 4.50952148 C9.79832694 5.70250334 11.86738287 6.89383319 13.93725586 8.08374023 C15.57815186 9.02999268 15.57815186 9.02999268 17.25219727 9.99536133 C23.10327313 13.33871376 29.01151317 16.57753268 34.91772461 19.82202148 C37.38941224 21.18209319 39.8606176 22.54303991 42.33178711 23.90405273 C43.24997978 24.40958176 43.24997978 24.40958176 44.1867218 24.92532349 C50.5640451 28.43780577 56.92937127 31.97180115 63.29272461 35.50952148 C64.39986816 36.12496826 65.50701172 36.74041504 66.64770508 37.37451172 C71.09934566 39.84962908 75.55051813 42.32558765 80.00170898 44.80151367 C92.71231058 51.87080964 105.43040767 58.92599493 118.16772461 65.94702148 C130.90217769 72.96646943 143.61729622 80.02026873 156.32495117 87.08813477 C161.93818601 90.20960497 167.55304091 93.32815839 173.16772461 96.44702148 C175.41773229 97.69700767 177.66773229 98.94700766 179.91772461 100.19702148 C181.03147461 100.81577148 182.14522461 101.43452148 183.29272461 102.07202148 C186.66772461 103.94702148 190.04272461 105.82202148 193.41772461 107.69702148 C195.08883301 108.62538818 195.08883301 108.62538818 196.79370117 109.57250977 C199.0405074 110.82077158 201.28725234 112.06914373 203.53393555 113.31762695 C209.20729908 116.47013528 214.88176183 119.62063465 220.55834961 122.76733398 C231.6544789 128.92031309 242.74024723 135.09089655 253.79272461 141.32202148 C255.26950684 142.1527417 255.26950684 142.1527417 256.77612305 143.00024414 C257.67105469 143.50604004 258.56598633 144.01183594 259.48803711 144.53295898 C260.27452637 144.97687988 261.06101562 145.42080078 261.87133789 145.87817383 C263.66772461 146.94702148 263.66772461 146.94702148 264.66772461 147.94702148 C265.46493909 161.61530194 264.20184256 175.52828428 263.58332479 189.1805799 C263.4234143 192.72661763 263.26739524 196.27282701 263.11087036 199.8190155 C262.80444782 206.74772144 262.49452731 213.6762666 262.18342013 220.6047636 C261.82034245 228.69402666 261.46093489 236.78345159 261.10169374 244.87288579 C260.45994487 259.32138243 259.81512453 273.76974031 259.16845703 288.21801758 C258.54280875 302.19677228 257.91898104 316.17560649 257.29736328 330.15454102 C257.23996497 331.4453003 257.23996497 331.4453003 257.1814071 332.76213554 C257.02753731 336.22241197 256.873671 339.68268856 256.71981153 343.14296545 C256.08905712 357.32737781 255.45684185 371.51172512 254.82441592 385.69606304 C254.68095325 388.91380155 254.53754941 392.13154267 254.39419675 395.34928608 C254.01724926 403.80987299 253.63982072 412.27043799 253.2610187 420.7309421 C253.10458534 424.2249438 252.94836518 427.7189546 252.79281044 431.21299553 C252.73483976 432.51402277 252.67686909 433.81505001 252.61714172 435.15550232 C252.56114898 436.41293731 252.50515623 437.6703723 252.44746673 438.96591139 C252.28777099 442.50109657 252.1211069 446.03590116 251.95378304 449.57073212 C251.76265255 453.65289453 251.60736352 457.73333712 251.48950005 461.81824493 C251.45836048 462.70589122 251.42722092 463.5935375 251.39513773 464.50808215 C251.33924184 466.1170545 251.2959742 467.72654438 251.26875359 469.33625722 C251.1431252 472.58547169 250.94596384 474.56828254 248.99466801 477.22438431 C246.84703053 478.84168888 244.89665429 479.64206347 242.35522461 480.50952148 C241.51161377 480.88149658 240.66800293 481.25347168 239.79882812 481.63671875 C237.11338003 482.81558117 234.40251464 483.88823656 231.66772461 484.94702148 C218.90665465 489.98769032 210.560546 493.94206641 204.6484375 506.81323242 C203.95326635 508.42701686 203.27357724 510.04757661 202.61108398 511.67504883 C201.26109395 514.92634471 199.65981547 518.00789855 198.04272461 521.13452148 C197.24886004 522.7376016 196.45617634 524.34127223 195.66772461 525.94702148 C192.3247985 522.84502699 189.9052766 519.51126787 187.41772461 515.69702148 C186.35811523 514.08053711 186.35811523 514.08053711 185.27709961 512.43139648 C184.74600586 511.61155273 184.21491211 510.79170898 183.66772461 509.94702148 C180.18351001 510.53169395 177.32723795 511.42599377 174.16430664 512.99047852 C173.29360031 513.41753082 172.42289398 513.84458313 171.52580261 514.28457642 C170.585215 514.75326141 169.64462738 515.22194641 168.67553711 515.70483398 C167.6776265 516.19615814 166.67971588 516.6874823 165.65156555 517.19369507 C162.36261038 518.81444416 159.07771611 520.44325578 155.79272461 522.07202148 C153.50535157 523.20089694 151.21766862 524.32914462 148.9296875 525.45678711 C144.19855836 527.78894229 139.46868667 530.12362151 134.73950195 532.4597168 C127.98999527 535.79117665 121.23130206 539.10357274 114.46850586 542.40795898 C113.41902771 542.92077423 112.36954956 543.43358948 111.28826904 543.96194458 C107.26045917 545.92962063 103.23233894 547.89666074 99.2041626 549.86358643 C96.44033739 551.21354471 93.6770255 552.56454863 90.91381836 553.91577148 C90.04944153 554.33768768 89.1850647 554.75960388 88.29449463 555.19430542 C83.99386983 557.298224 79.70790241 559.42650271 75.44165039 561.59936523 C74.61117691 562.02092896 73.78070343 562.44249268 72.92506409 562.87683105 C71.36043591 563.67316944 69.79836651 564.47456283 68.23936462 565.28186035 C62.99976134 567.94702148 62.99976134 567.94702148 59.66772461 567.94702148 C59.79078476 568.74358154 59.91384491 569.5401416 60.04063416 570.36083984 C61.20404045 577.89283972 62.36634276 585.42500875 63.52742672 592.95736694 C64.12429019 596.8291745 64.72157003 600.70091684 65.31982422 604.57250977 C65.89789298 608.31357698 66.47483822 612.05481593 67.0510273 615.7961731 C67.27029547 617.21865931 67.48995834 618.64108474 67.71003532 620.06344604 C68.78543356 627.01536099 69.85274671 633.95926841 70.66772461 640.94702148 C64.3284949 638.94430866 58.38315496 636.19329099 52.36206055 633.40673828 C50.41303951 632.50735954 48.45854299 631.62068649 46.50366211 630.73413086 C45.26111853 630.16133496 44.01891842 629.58779325 42.77709961 629.01342773 C41.09052246 628.23914429 41.09052246 628.23914429 39.36987305 627.44921875 C36.66772461 625.94702148 36.66772461 625.94702148 34.66772461 622.94702148 C34.15482002 620.41827407 33.73325831 617.94329944 33.37866211 615.39233398 C33.27051178 614.65377167 33.16236145 613.91520935 33.05093384 613.15426636 C32.82388567 611.59302949 32.60053371 610.03125125 32.38061523 608.46899414 C32.04478677 606.08665031 31.69710065 603.7062724 31.34741211 601.32592773 C31.12795829 599.80649797 30.90918591 598.2869696 30.69116211 596.76733398 C30.58806732 596.05884308 30.48497253 595.35035217 30.37875366 594.62039185 C29.87687505 591.02628468 29.62513382 587.57152212 29.66772461 583.94702148 C29.09000809 584.23294662 28.51229156 584.51887177 27.91706848 584.8134613 C21.90212173 587.78896131 15.88316499 590.75622715 9.86181641 593.71875 C7.61533439 594.82536662 5.36988234 595.93407667 3.12548828 597.04492188 C-0.10123319 598.64151023 -3.33158705 600.23052672 -6.56274414 601.81811523 C-8.06613594 602.56501869 -8.06613594 602.56501869 -9.59989929 603.32701111 C-10.54049698 603.78741287 -11.48109467 604.24781464 -12.45019531 604.72216797 C-13.27404221 605.12853989 -14.0978891 605.5349118 -14.94670105 605.95359802 C-18.44015125 607.40837364 -21.11137227 608.39033297 -24.73803711 607.07348633 C-25.57093262 606.6063623 -26.40382813 606.13923828 -27.26196289 605.65795898 C-28.68412109 604.87388672 -28.68412109 604.87388672 -30.13500977 604.07397461 C-31.65578125 603.20675781 -31.65578125 603.20675781 -33.20727539 602.32202148 C-34.27010742 601.73098633 -35.33293945 601.13995117 -36.42797852 600.53100586 C-39.73828576 598.68498591 -43.03640046 596.81866757 -46.33227539 594.94702148 C-48.28264594 593.84519292 -50.23316054 592.74361929 -52.18383789 591.64233398 C-55.01882711 590.03986378 -57.85263139 588.43544377 -60.68334961 586.82543945 C-67.51953904 582.94348956 -74.40979473 579.17261744 -81.33227539 575.44702148 C-90.06490124 570.74548772 -98.72298399 565.92965576 -107.3449707 561.02856445 C-115.05842952 556.65047926 -122.81258281 552.3491332 -130.58227539 548.07202148 C-131.49857224 547.56753479 -131.49857224 547.56753479 -132.43338013 547.05285645 C-133.04527191 546.71596802 -133.6571637 546.37907959 -134.28759766 546.03198242 C-135.52385111 545.35133055 -136.76009786 544.67066649 -137.99633789 543.98999023 C-138.6083757 543.65303131 -139.22041351 543.31607239 -139.85099792 542.96890259 C-146.22837084 539.45628298 -152.59382603 535.92229521 -158.95727539 532.38452148 C-160.61799072 531.46135132 -160.61799072 531.46135132 -162.31225586 530.51953125 C-166.76389645 528.04441389 -171.21506891 525.56845532 -175.66625977 523.0925293 C-188.37686136 516.02323333 -201.09495845 508.96804804 -213.83227539 501.94702148 C-225.43014438 495.55407809 -237.01329618 489.1351156 -248.58618164 482.69702148 C-252.6619496 480.4298494 -256.73981292 478.16655449 -260.82080078 475.90879822 C-263.25965386 474.55945684 -265.6978022 473.20884466 -268.13592529 471.85818481 C-269.83238134 470.91906155 -271.52981973 469.98171349 -273.22729492 469.04443359 C-275.29781873 467.89695854 -277.35956143 466.73345206 -279.41088867 465.55200195 C-282.29643183 463.90308283 -282.29643183 463.90308283 -285.32788086 462.67407227 C-288.23578159 461.33011885 -290.11312743 460.25932576 -292.33227539 457.94702148 C-292.76332951 455.02671993 -292.76332951 455.02671993 -292.62940979 451.58219719 C-292.59102053 450.32779075 -292.55263126 449.07338432 -292.51307869 447.78096557 C-292.4534136 446.51576402 -292.39374851 445.25056247 -292.33227539 443.94702148 C-292.29652342 442.84008446 -292.26077145 441.73314744 -292.22393608 440.59266686 C-292.10871085 437.17450527 -291.95836747 433.75926564 -291.80078125 430.34280396 C-291.74361152 429.04860657 -291.68644178 427.75440918 -291.62753963 426.42099369 C-291.47070224 422.8724018 -291.31003355 419.32399272 -291.14867353 415.77560401 C-290.97461614 411.93269823 -290.80420496 408.08963045 -290.6333313 404.24658203 C-290.33743419 397.60272262 -290.03927192 390.95896805 -289.73953247 384.31528091 C-289.30617288 374.70984603 -288.87628951 365.10425799 -288.4472307 355.49863015 C-287.75087058 339.91084216 -287.05173326 324.32318003 -286.35083008 308.7355957 C-285.67032633 293.60154664 -284.99114257 278.46743929 -284.3137207 263.33325195 C-284.27190277 262.39901347 -284.23008483 261.46477499 -284.18699968 260.50222625 C-283.9772012 255.81501772 -283.76742853 251.12780803 -283.55766869 246.44059777 C-281.81987188 207.60922586 -280.07755976 168.77805755 -278.33227539 129.94702148 C-277.79937499 129.68652305 -277.2664746 129.42602462 -276.7174257 129.15763229 C-271.10147124 126.41236319 -265.48555718 123.66701145 -259.86966515 120.92161465 C-257.78206688 119.90107987 -255.69445879 118.8805652 -253.60684013 117.86007214 C-239.34484546 110.88834318 -225.08535382 103.91160176 -210.83300781 96.92016602 C-205.56487807 94.33596926 -200.29624355 91.75280204 -195.02758789 89.16967773 C-193.96409119 88.64826202 -192.90059448 88.12684631 -191.80487061 87.58963013 C-180.81681361 82.2030206 -169.82476168 76.82458481 -158.83227539 71.44702148 C-143.56977007 63.98046633 -128.3106122 56.50712462 -113.05474854 49.02700806 C-103.48094827 44.33295005 -93.90665099 39.63990586 -84.33227539 34.94702148 C-83.28269653 34.43254456 -82.23311768 33.91806763 -81.1517334 33.38800049 C-77.99583818 31.84112512 -74.83985973 30.29441974 -71.68383789 28.74780273 C-70.65868576 28.24538055 -69.63353363 27.74295837 -68.57731628 27.22531128 C-63.57955994 24.77660979 -58.58052347 22.3305873 -53.57861328 19.89038086 C-51.68789653 18.96787606 -49.79718995 18.04535044 -47.90649414 17.12280273 C-46.99853592 16.6798587 -46.0905777 16.23691467 -45.15510559 15.7805481 C-40.20204908 13.36078795 -35.26030737 10.92032282 -30.33209229 8.45036316 C-27.60094855 7.08292655 -24.86442419 5.72651086 -22.12689209 4.37191772 C-20.3376744 3.4808371 -18.55670708 2.5732489 -16.77612305 1.66503906 C-15.73117676 1.14965576 -14.68623047 0.63427246 -13.60961914 0.10327148 C-12.7252417 -0.34209961 -11.84086426 -0.7874707 -10.9296875 -1.24633789 C-6.87963688 -2.5041034 -3.8051974 -1.71797513 0 0 Z " fill="#8ABAD5" transform="translate(408.332275390625,93.052978515625)"/>
<path d="M0 0 C2.6652571 1.45263461 5.28309618 2.971461 7.89941406 4.51049805 C9.96751639 5.7034799 12.03657232 6.89480976 14.10644531 8.0847168 C15.74734131 9.03096924 15.74734131 9.03096924 17.42138672 9.99633789 C23.27246258 13.33969032 29.18070262 16.57850924 35.08691406 19.82299805 C37.55860169 21.18306975 40.02980705 22.54401648 42.50097656 23.9050293 C43.41916924 24.41055832 43.41916924 24.41055832 44.35591125 24.92630005 C50.73323455 28.43878234 57.09856072 31.97277771 63.46191406 35.51049805 C64.56905762 36.12594482 65.67620117 36.7413916 66.81689453 37.37548828 C71.26853512 39.85060564 75.71970758 42.32656421 80.17089844 44.80249023 C92.88150003 51.87178621 105.59959712 58.92697149 118.33691406 65.94799805 C131.07136714 72.96744599 143.78648567 80.02124529 156.49414062 87.08911133 C162.10737547 90.21058154 167.72223036 93.32913495 173.33691406 96.44799805 C175.58692174 97.69798423 177.83692174 98.94798423 180.08691406 100.19799805 C181.20066406 100.81674805 182.31441406 101.43549805 183.46191406 102.07299805 C186.83691406 103.94799805 190.21191406 105.82299805 193.58691406 107.69799805 C195.25802246 108.62636475 195.25802246 108.62636475 196.96289062 109.57348633 C199.20969686 110.82174814 201.45644179 112.07012029 203.703125 113.31860352 C209.37648854 116.47111184 215.05095129 119.62161121 220.72753906 122.76831055 C235.13691639 130.7589931 249.50802976 138.81381492 263.83691406 146.94799805 C263.83691406 147.60799805 263.83691406 148.26799805 263.83691406 148.94799805 C249.75868353 156.03776564 235.66809505 163.07892165 221.42456055 169.83203125 C213.06590946 173.80795594 204.79665071 177.95349276 196.52783203 182.11230469 C188.57190754 186.10445916 180.56268184 189.96920113 172.52050781 193.78393555 C164.13206068 197.77623638 155.83184399 201.93577047 147.53271484 206.10986328 C139.52840471 210.12630963 131.47054272 214.01536941 123.37988281 217.85424805 C116.48831271 221.13368485 109.65431005 224.51728715 102.83691406 227.94799805 C95.08537767 231.84879542 87.30185888 235.6655794 79.46191406 239.38549805 C71.20135938 243.3055687 63.00540501 247.33960687 54.83691406 251.44799805 C45.74821556 256.01921309 36.62249279 260.49365629 27.41723633 264.82568359 C22.31316438 267.239237 17.27599567 269.74222173 12.27832031 272.36987305 C11.19180176 272.93504639 10.1052832 273.50021973 8.98583984 274.08251953 C6.89072044 275.177225 4.8039183 276.28804281 2.72705078 277.41699219 C-4.24751149 281.04226569 -4.24751149 281.04226569 -8.19824219 280.63549805 C-9.17664063 280.07862305 -10.15503906 279.52174805 -11.16308594 278.94799805 C-11.8963208 278.55378662 -12.62955566 278.1595752 -13.38500977 277.75341797 C-16.13105524 276.26018513 -18.83389615 274.70319726 -21.53808594 273.13549805 C-29.69102565 268.4647602 -37.88582653 263.89471181 -46.16308594 259.44799805 C-54.89608988 254.74718301 -63.55381116 249.93062287 -72.17578125 245.02954102 C-79.88924006 240.65145582 -87.64339336 236.35010976 -95.41308594 232.07299805 C-96.0239505 231.73667358 -96.63481506 231.40034912 -97.26419067 231.05383301 C-97.87608246 230.71694458 -98.48797424 230.38005615 -99.1184082 230.03295898 C-100.35466166 229.35230712 -101.59090841 228.67164306 -102.82714844 227.9909668 C-103.43918625 227.65400787 -104.05122406 227.31704895 -104.68180847 226.96987915 C-114.41072382 221.61124963 -124.11362979 216.20564113 -133.8203125 210.80688477 C-139.43354732 207.68541457 -145.04838315 204.56682674 -150.66308594 201.44799805 C-157.39043168 197.71112368 -164.11746793 193.97369955 -170.84277344 190.2331543 C-182.43868822 183.78495869 -194.04328918 177.35302839 -205.66308594 170.94799805 C-216.14878754 165.16810031 -226.62614533 159.37354135 -237.08691406 153.54858398 C-242.32832294 150.63031878 -247.57306911 147.71874844 -252.8321228 144.83241272 C-255.33991515 143.45562821 -257.84565171 142.07512567 -260.35125732 140.69436646 C-262.12330207 139.71987616 -263.89829008 138.75074409 -265.67333984 137.78173828 C-267.27701416 136.89723999 -267.27701416 136.89723999 -268.91308594 135.99487305 C-269.85667969 135.47763672 -270.80027344 134.96040039 -271.77246094 134.42749023 C-273.91845778 133.0993917 -275.48903887 131.81874564 -277.16308594 129.94799805 C-275.82322632 129.27861206 -275.82322632 129.27861206 -274.45629883 128.59570312 C-267.35442344 125.04662755 -260.25465679 121.49340618 -253.15853882 117.93283081 C-249.29504582 115.99464788 -245.43063919 114.05829022 -241.56616211 112.12207031 C-239.60127872 111.13712136 -237.63675566 110.15145321 -235.67260742 109.16503906 C-223.86450068 103.23579059 -212.01617024 97.408981 -200.08482361 91.73149109 C-193.06543593 88.38940253 -186.09909279 84.96031356 -179.16308594 81.44799805 C-170.10834034 76.89082208 -161.00519611 72.45632215 -151.84667969 68.11206055 C-144.571528 64.64960871 -137.36090682 61.06815353 -130.16308594 57.44799805 C-121.10708797 52.89326943 -112.00524951 48.45634748 -102.84667969 44.11206055 C-94.45823256 40.11975971 -86.15801586 35.96022562 -77.85888672 31.78613281 C-69.86190703 27.77336477 -61.81191445 23.88678648 -53.72802734 20.05273438 C-46.6183477 16.67054939 -39.57202385 13.17217604 -32.53808594 9.63549805 C-29.60512508 8.16808117 -26.67145815 6.70209115 -23.73730469 5.23706055 C-22.13882329 4.43660704 -20.54211706 3.63258528 -18.94824219 2.82299805 C-17.15220108 1.91252968 -15.34565872 1.02285196 -13.53808594 0.13549805 C-12.61769531 -0.32469727 -11.69730469 -0.78489258 -10.74902344 -1.2590332 C-6.63191776 -2.52152936 -3.85394306 -1.87433867 0 0 Z " fill="#F5FFFF" transform="translate(408.1630859375,93.052001953125)"/>
<path d="M0 0 C0.24917776 13.76265804 -0.46167944 27.48850025 -1.08439982 41.23355842 C-1.24431031 44.77959615 -1.40032937 48.32580552 -1.55685425 51.87199402 C-1.86327679 58.80069996 -2.1731973 65.72924511 -2.48430448 72.65774211 C-2.84738215 80.74700518 -3.20678972 88.83643011 -3.56603087 96.92586431 C-4.20777974 111.37436095 -4.85260008 125.82271883 -5.49926758 140.27099609 C-6.12491586 154.24975079 -6.74874357 168.228585 -7.37036133 182.20751953 C-7.42775964 183.49827882 -7.42775964 183.49827882 -7.48631751 184.81511405 C-7.6401873 188.27539049 -7.79405361 191.73566707 -7.94791308 195.19594397 C-8.57866749 209.38035633 -9.21088276 223.56470363 -9.84330869 237.74904156 C-9.98677136 240.96678006 -10.1301752 244.18452118 -10.27352786 247.4022646 C-10.65047534 255.86285151 -11.02790389 264.32341651 -11.40670591 272.78392062 C-11.56313926 276.27792231 -11.71935943 279.77193311 -11.87491417 283.26597404 C-11.93288485 284.56700129 -11.99085552 285.86802853 -12.05058289 287.20848083 C-12.10657563 288.46591583 -12.16256838 289.72335082 -12.22025788 291.0188899 C-12.37995362 294.55407508 -12.54661771 298.08887968 -12.71394157 301.62371063 C-12.90507206 305.70587305 -13.06036109 309.78631564 -13.17822456 313.87122345 C-13.20936413 314.75886973 -13.24050369 315.64651601 -13.27258688 316.56106067 C-13.32848277 318.17003302 -13.37175041 319.7795229 -13.39897102 321.38923573 C-13.52459319 324.63828927 -13.72166171 326.62114681 -15.67293453 329.27707291 C-17.82134217 330.89518398 -19.76873019 331.69831382 -22.3125 332.5625 C-24.03689898 333.29975145 -25.76084191 334.03807031 -27.484375 334.77734375 C-28.38478516 335.1316748 -29.28519531 335.48600586 -30.21289062 335.85107422 C-34.97529753 337.81427384 -39.49339228 340.25427199 -44.0625 342.625 C-45.73754716 343.47794197 -47.41568518 344.32485674 -49.09765625 345.1640625 C-49.80414307 345.51936035 -50.51062988 345.8746582 -51.23852539 346.24072266 C-53 347 -53 347 -55 347 C-56.3828125 345.18359375 -56.3828125 345.18359375 -58.125 342.4375 C-62.13494779 336.27057668 -66.28938391 330.21915566 -70.5 324.1875 C-71.18618408 323.20313965 -71.87236816 322.2187793 -72.5793457 321.20458984 C-74.00220642 319.16378513 -75.42547027 317.12326143 -76.84912109 315.08300781 C-80.34045226 310.07863437 -83.82704411 305.0709667 -87.3125 300.0625 C-87.98474609 299.09658936 -88.65699219 298.13067871 -89.34960938 297.13549805 C-93.51307351 291.14923649 -97.65550634 285.14914781 -101.77856445 279.13500977 C-106.51356657 272.23598775 -111.30122837 265.37367607 -116.08447266 258.50805664 C-120.42521001 252.27426113 -124.74960904 246.02991121 -129.0234375 239.75 C-133.57517647 233.09154401 -138.30201973 226.55557379 -143 220 C-143.59812959 225.72816776 -144.18579136 231.45727857 -144.76391602 237.1875 C-144.9619098 239.13538321 -145.16272582 241.08298175 -145.36645508 243.03027344 C-145.65934605 245.83457914 -145.94196339 248.63976282 -146.22265625 251.4453125 C-146.36164085 252.74409836 -146.36164085 252.74409836 -146.50343323 254.06912231 C-147.14652409 260.65095671 -147.25678649 265.84401912 -143.2265625 271.3984375 C-142.65502441 272.19870361 -142.08348633 272.99896973 -141.49462891 273.82348633 C-140.87765137 274.66548584 -140.26067383 275.50748535 -139.625 276.375 C-138.33271797 278.17794451 -137.0410576 279.98133475 -135.75 281.78515625 C-135.10933594 282.67348145 -134.46867188 283.56180664 -133.80859375 284.47705078 C-131.3633024 287.8881794 -128.98853575 291.34446581 -126.625 294.8125 C-123.41856015 299.4991163 -120.18893947 304.1686803 -116.9375 308.82421875 C-116.22513184 309.84475342 -115.51276367 310.86528809 -114.77880859 311.91674805 C-113.37714537 313.92327772 -111.97390694 315.92870826 -110.56884766 317.93286133 C-109.91964355 318.86251709 -109.27043945 319.79217285 -108.6015625 320.75 C-108.02744629 321.56984375 -107.45333008 322.3896875 -106.86181641 323.234375 C-104.48338869 326.76739744 -102.23827241 330.37706536 -100 334 C-144.08865129 356.14219785 -144.08865129 356.14219785 -159.22485352 363.2902832 C-167.31886774 367.12112627 -175.31334556 371.14285803 -183.31298828 375.16625977 C-191.26760351 379.15777416 -199.27554908 383.02182772 -207.31640625 386.8359375 C-214.59156295 390.29839172 -221.80207398 393.88004636 -229 397.5 C-240.92545158 403.49411088 -252.93686704 409.28894116 -265 415 C-266.88546522 415.89442891 -268.77088229 416.78895932 -270.65625 417.68359375 C-275.10260877 419.79236696 -279.55073276 421.89737079 -284 424 C-284.20866735 409.772879 -283.55842901 395.59628038 -282.93017578 381.38598633 C-282.81492199 378.72183351 -282.69993304 376.05767037 -282.5852356 373.39349365 C-282.27485446 366.20201814 -281.95931678 359.01077469 -281.64271402 351.81957078 C-281.44486253 347.32486165 -281.2481606 342.83010267 -281.05169296 338.33533287 C-280.50672362 325.87109316 -279.96065566 313.40690307 -279.40980721 300.94292164 C-279.37469899 300.14851873 -279.33959078 299.35411582 -279.30341869 298.5356401 C-279.23225863 296.92559282 -279.1610977 295.31554558 -279.08993591 293.70549837 C-279.05461741 292.90638264 -279.01929891 292.10726691 -278.98291016 291.28393555 C-278.9475474 290.48383852 -278.91218464 289.68374149 -278.87575029 288.8593991 C-278.301274 275.85666675 -277.73515115 262.85358525 -277.1726407 249.85033027 C-276.59395972 236.47580615 -276.00865424 223.10158569 -275.41657245 209.72764796 C-275.08469416 202.22784526 -274.75562638 194.72794305 -274.43381119 187.22770119 C-274.16023335 180.85258813 -273.88058074 174.47777812 -273.59296526 168.10328231 C-273.44645587 164.85216905 -273.30378953 161.60096718 -273.16691589 158.34943199 C-273.01814972 154.82647118 -272.8585159 151.30416745 -272.69607544 147.78181458 C-272.65520974 146.75284571 -272.61434405 145.72387684 -272.57224 144.6637271 C-272.52645715 143.71963884 -272.48067431 142.77555058 -272.4335041 141.80285358 C-272.37996354 140.58386072 -272.37996354 140.58386072 -272.32534134 139.34024173 C-271.83877114 135.84025035 -271.09479195 132.84936244 -268.24385071 130.63754272 C-267.53600937 130.2909964 -266.82816803 129.94445007 -266.09887695 129.58740234 C-265.29151596 129.18243027 -264.48415497 128.77745819 -263.65232849 128.36021423 C-262.33362511 127.72944725 -262.33362511 127.72944725 -260.98828125 127.0859375 C-260.07655655 126.63436783 -259.16483185 126.18279816 -258.22547913 125.71754456 C-255.26183446 124.25450492 -252.28757994 122.81462306 -249.3125 121.375 C-247.27425618 120.37444348 -245.23665842 119.37256981 -243.19970703 118.36938477 C-237.47715901 115.55735385 -231.74171371 112.77265712 -226 110 C-224.9678537 109.50128387 -224.9678537 109.50128387 -223.91485596 108.99249268 C-219.54237217 106.88178439 -215.1643438 104.78320056 -210.7746582 102.70849609 C-202.68121345 98.88104665 -194.68925609 94.85846882 -186.69140625 90.8359375 C-178.68856908 86.8202111 -170.63214729 82.93192575 -162.54296875 79.09375 C-155.65139865 75.81431319 -148.81739599 72.4307109 -142 69 C-134.2484636 65.09920262 -126.46494481 61.28241864 -118.625 57.5625 C-110.36444529 53.64242933 -102.16849233 49.6083883 -94 45.5 C-84.94400355 40.94526821 -75.84216355 36.50834942 -66.68359375 32.1640625 C-58.30697968 28.17739335 -50.01827546 24.02412884 -41.73095703 19.85571289 C-31.68421004 14.81425073 -21.54946999 9.96849132 -11.39355469 5.15185547 C-9.05260571 4.02531556 -6.73186468 2.86471002 -4.4140625 1.69140625 C-1 0 -1 0 0 0 Z " fill="#668798" transform="translate(673,241)"/>
<path d="M0 0 C2.6652571 1.45263461 5.28309618 2.971461 7.89941406 4.51049805 C9.96751639 5.7034799 12.03657232 6.89480976 14.10644531 8.0847168 C15.74734131 9.03096924 15.74734131 9.03096924 17.42138672 9.99633789 C23.27246258 13.33969032 29.18070262 16.57850924 35.08691406 19.82299805 C37.55860169 21.18306975 40.02980705 22.54401648 42.50097656 23.9050293 C43.41916924 24.41055832 43.41916924 24.41055832 44.35591125 24.92630005 C50.73323455 28.43878234 57.09856072 31.97277771 63.46191406 35.51049805 C64.56905762 36.12594482 65.67620117 36.7413916 66.81689453 37.37548828 C71.26853512 39.85060564 75.71970758 42.32656421 80.17089844 44.80249023 C92.88150003 51.87178621 105.59959712 58.92697149 118.33691406 65.94799805 C131.07136714 72.96744599 143.78648567 80.02124529 156.49414062 87.08911133 C162.10737547 90.21058154 167.72223036 93.32913495 173.33691406 96.44799805 C175.58692174 97.69798423 177.83692174 98.94798423 180.08691406 100.19799805 C181.20066406 100.81674805 182.31441406 101.43549805 183.46191406 102.07299805 C186.83691406 103.94799805 190.21191406 105.82299805 193.58691406 107.69799805 C195.25802246 108.62636475 195.25802246 108.62636475 196.96289062 109.57348633 C199.20969686 110.82174814 201.45644179 112.07012029 203.703125 113.31860352 C209.37648854 116.47111184 215.05095129 119.62161121 220.72753906 122.76831055 C235.13691639 130.7589931 249.50802976 138.81381492 263.83691406 146.94799805 C263.83691406 147.60799805 263.83691406 148.26799805 263.83691406 148.94799805 C249.75868353 156.03776564 235.66809505 163.07892165 221.42456055 169.83203125 C213.06590946 173.80795594 204.79665071 177.95349276 196.52783203 182.11230469 C188.57190754 186.10445916 180.56268184 189.96920113 172.52050781 193.78393555 C164.13206068 197.77623638 155.83184399 201.93577047 147.53271484 206.10986328 C139.52840471 210.12630963 131.47054272 214.01536941 123.37988281 217.85424805 C116.48831271 221.13368485 109.65431005 224.51728715 102.83691406 227.94799805 C95.08537767 231.84879542 87.30185888 235.6655794 79.46191406 239.38549805 C71.20135938 243.3055687 63.00540501 247.33960687 54.83691406 251.44799805 C45.74821556 256.01921309 36.62249279 260.49365629 27.41723633 264.82568359 C22.31316438 267.239237 17.27599567 269.74222173 12.27832031 272.36987305 C11.19180176 272.93504639 10.1052832 273.50021973 8.98583984 274.08251953 C6.89072044 275.177225 4.8039183 276.28804281 2.72705078 277.41699219 C-4.24751149 281.04226569 -4.24751149 281.04226569 -8.19824219 280.63549805 C-9.17664063 280.07862305 -10.15503906 279.52174805 -11.16308594 278.94799805 C-11.8963208 278.55378662 -12.62955566 278.1595752 -13.38500977 277.75341797 C-16.13105524 276.26018513 -18.83389615 274.70319726 -21.53808594 273.13549805 C-29.69102565 268.4647602 -37.88582653 263.89471181 -46.16308594 259.44799805 C-54.89608988 254.74718301 -63.55381116 249.93062287 -72.17578125 245.02954102 C-79.88924006 240.65145582 -87.64339336 236.35010976 -95.41308594 232.07299805 C-96.0239505 231.73667358 -96.63481506 231.40034912 -97.26419067 231.05383301 C-97.87608246 230.71694458 -98.48797424 230.38005615 -99.1184082 230.03295898 C-100.35466166 229.35230712 -101.59090841 228.67164306 -102.82714844 227.9909668 C-103.43918625 227.65400787 -104.05122406 227.31704895 -104.68180847 226.96987915 C-114.41072382 221.61124963 -124.11362979 216.20564113 -133.8203125 210.80688477 C-139.43354732 207.68541457 -145.04838315 204.56682674 -150.66308594 201.44799805 C-157.39043168 197.71112368 -164.11746793 193.97369955 -170.84277344 190.2331543 C-182.43868822 183.78495869 -194.04328918 177.35302839 -205.66308594 170.94799805 C-216.14878754 165.16810031 -226.62614533 159.37354135 -237.08691406 153.54858398 C-242.32832294 150.63031878 -247.57306911 147.71874844 -252.8321228 144.83241272 C-255.33991515 143.45562821 -257.84565171 142.07512567 -260.35125732 140.69436646 C-262.12330207 139.71987616 -263.89829008 138.75074409 -265.67333984 137.78173828 C-267.27701416 136.89723999 -267.27701416 136.89723999 -268.91308594 135.99487305 C-269.85667969 135.47763672 -270.80027344 134.96040039 -271.77246094 134.42749023 C-273.91845778 133.0993917 -275.48903887 131.81874564 -277.16308594 129.94799805 C-275.82322632 129.27861206 -275.82322632 129.27861206 -274.45629883 128.59570312 C-267.35442344 125.04662755 -260.25465679 121.49340618 -253.15853882 117.93283081 C-249.29504582 115.99464788 -245.43063919 114.05829022 -241.56616211 112.12207031 C-239.60127872 111.13712136 -237.63675566 110.15145321 -235.67260742 109.16503906 C-223.86450068 103.23579059 -212.01617024 97.408981 -200.08482361 91.73149109 C-193.06543593 88.38940253 -186.09909279 84.96031356 -179.16308594 81.44799805 C-170.10834034 76.89082208 -161.00519611 72.45632215 -151.84667969 68.11206055 C-144.571528 64.64960871 -137.36090682 61.06815353 -130.16308594 57.44799805 C-121.10708797 52.89326943 -112.00524951 48.45634748 -102.84667969 44.11206055 C-94.45823256 40.11975971 -86.15801586 35.96022562 -77.85888672 31.78613281 C-69.86190703 27.77336477 -61.81191445 23.88678648 -53.72802734 20.05273438 C-46.6183477 16.67054939 -39.57202385 13.17217604 -32.53808594 9.63549805 C-29.60512508 8.16808117 -26.67145815 6.70209115 -23.73730469 5.23706055 C-22.13882329 4.43660704 -20.54211706 3.63258528 -18.94824219 2.82299805 C-17.15220108 1.91252968 -15.34565872 1.02285196 -13.53808594 0.13549805 C-12.61769531 -0.32469727 -11.69730469 -0.78489258 -10.74902344 -1.2590332 C-6.63191776 -2.52152936 -3.85394306 -1.87433867 0 0 Z M-14.24121094 32.2800293 C-15.31284485 32.80132164 -15.31284485 32.80132164 -16.40612793 33.33314514 C-18.74371321 34.471681 -21.07842621 35.61597665 -23.41308594 36.76049805 C-25.02397519 37.54670039 -26.63497826 38.33266957 -28.24609375 39.1184082 C-37.69488277 43.73220055 -47.1156629 48.39933364 -56.50683594 53.12939453 C-63.71590348 56.75109929 -70.99159464 60.22373122 -78.27929688 63.68383789 C-85.62036009 67.18128953 -92.89868229 70.79429755 -100.16308594 74.44799805 C-109.21908087 79.00273302 -118.32092241 83.43964863 -127.47949219 87.78393555 C-134.75464388 91.24638738 -141.96526505 94.82784256 -149.16308594 98.44799805 C-157.29003018 102.53545761 -165.44391162 106.54925957 -173.66308594 110.44799805 C-185.39519918 116.01361445 -197.00229293 121.82150012 -208.60107422 127.65893555 C-211.45258467 129.09365779 -214.3069927 130.52242638 -217.16308594 131.94799805 C-213.85832713 134.71563104 -210.6071889 136.93661564 -206.79589844 138.9440918 C-205.75780029 139.49564941 -204.71970215 140.04720703 -203.65014648 140.61547852 C-202.5406665 141.19958496 -201.43118652 141.78369141 -200.28808594 142.38549805 C-197.92114848 143.64530104 -195.5550098 144.90644762 -193.19042969 146.1706543 C-192.59432388 146.48905273 -191.99821808 146.80745117 -191.38404846 147.13549805 C-185.82402226 150.11327173 -180.33039755 153.20073444 -174.85058594 156.32299805 C-166.28099049 161.19921435 -157.67458841 166.00414881 -149.03808594 170.76049805 C-148.43026276 171.09530182 -147.82243958 171.43010559 -147.19619751 171.77505493 C-144.09574448 173.48256935 -140.99479641 175.18918217 -137.89355469 176.89526367 C-131.7727237 180.26276031 -125.65520252 183.63626004 -119.53808594 187.01049805 C-118.93794678 187.34150513 -118.33780762 187.67251221 -117.71948242 188.0135498 C-105.63417391 194.68004577 -93.56778071 201.38039564 -81.50585938 208.08911133 C-75.89262451 211.21058155 -70.27775064 214.32910072 -64.66308594 217.44799805 C-63.55715088 218.06247803 -62.45121582 218.67695801 -61.31176758 219.31005859 C-56.14795908 222.17917504 -50.98391738 225.04786768 -45.81858826 227.91424561 C-44.62730247 228.57541404 -43.43610926 229.23674932 -42.24501038 229.89825439 C-39.35185765 231.50498248 -36.45743558 233.10928288 -33.56079102 234.7097168 C-28.7135509 237.39237572 -23.88400519 240.08944352 -19.12402344 242.92456055 C-18.38821045 243.35784668 -17.65239746 243.79113281 -16.89428711 244.23754883 C-15.58898312 245.01065804 -14.29130575 245.79689186 -13.00415039 246.59985352 C-8.86848049 249.03706107 -6.75639032 249.10338146 -2.16308594 247.94799805 C0.75862065 246.73679843 3.55403271 245.31058988 6.36425781 243.86206055 C7.589907 243.24294044 7.589907 243.24294044 8.84031677 242.61131287 C10.58505643 241.72904529 12.32799757 240.84321351 14.0692749 239.95413208 C18.61023231 237.63570392 23.16396138 235.34258235 27.71582031 233.0456543 C29.05181274 232.37006721 29.05181274 232.37006721 30.41479492 231.68083191 C36.97344129 228.36836533 43.56620663 225.14525424 50.21191406 222.01049805 C59.25829428 217.73542245 68.20595672 213.28010192 77.14453125 208.78442383 C85.14769575 204.76853744 93.20443758 200.88007999 101.29394531 197.04174805 C108.18551541 193.76231124 115.01951807 190.37870895 121.83691406 186.94799805 C129.58844979 183.04720101 137.37195613 179.23038842 145.21191406 175.51049805 C154.61617818 171.04804759 163.92950893 166.41973471 173.22851562 161.74243164 C183.35962497 156.65851797 193.57749809 151.76691483 203.83691406 146.94799805 C203.83691406 146.28799805 203.83691406 145.62799805 203.83691406 144.94799805 C203.11028564 144.54709961 202.38365723 144.14620117 201.63500977 143.7331543 C200.604646 143.16467773 199.57428223 142.59620117 198.51269531 142.01049805 C197.94821182 141.69906357 197.38372833 141.38762909 196.80213928 141.0667572 C193.59770543 139.29881335 190.3933067 137.5308059 187.18896484 135.76269531 C180.59443093 132.12400774 173.9995038 128.48603829 167.40332031 124.8503418 C152.31252164 116.53164492 137.23890556 108.18266584 122.1796875 99.80688477 C116.56645266 96.68541456 110.95159776 93.56686114 105.33691406 90.44799805 C103.08690639 89.19801186 100.83690638 87.94801187 98.58691406 86.69799805 C97.47316406 86.07924805 96.35941406 85.46049805 95.21191406 84.82299805 C76.64941406 74.51049805 76.64941406 74.51049805 58.08691406 64.19799805 C56.97227783 63.57876465 55.8576416 62.95953125 54.70922852 62.3215332 C52.4681496 61.07647134 50.22710123 59.8313545 47.98608398 58.58618164 C42.82211221 55.71701626 37.65789202 52.84830219 32.49247742 49.98173523 C30.12456205 48.66759754 27.75684703 47.35309909 25.38912964 46.03860474 C23.67410744 45.08670379 21.95876016 44.13538861 20.2434082 43.18408203 C15.36957046 40.47856489 10.50089376 37.7658237 5.65722656 35.0065918 C4.9033667 34.57781738 4.14950684 34.14904297 3.37280273 33.70727539 C2.02178383 32.93674663 0.67281237 32.16261107 -0.67358398 31.3840332 C-6.42001268 28.10564775 -8.57007491 29.49224848 -14.24121094 32.2800293 Z " fill="#C0EFFF" transform="translate(408.1630859375,93.052001953125)"/>
<path d="M0 0 C0.64243652 0.30977783 1.28487305 0.61955566 1.94677734 0.9387207 C4.09165775 2.05939161 6.23564034 3.18130859 8.375 4.3125 C9.20660645 4.75126465 10.03821289 5.1900293 10.89501953 5.64208984 C18.25559439 9.55346033 25.51028752 13.6413994 32.75439453 17.76342773 C40.55223473 22.19655177 48.39179637 26.55022781 56.25 30.875 C58.72140117 32.23559172 61.19275088 33.59627688 63.6640625 34.95703125 C64.27612549 35.29400528 64.88818848 35.63097931 65.51879883 35.97816467 C75.24769653 41.33676469 84.95056982 46.74237136 94.65722656 52.14111328 C100.27046138 55.26258348 105.88529721 58.38117131 111.5 61.5 C118.22734574 65.23687437 124.95438199 68.9742985 131.6796875 72.71484375 C143.91938603 79.52093104 156.17139896 86.30386071 168.4380188 93.06124878 C180.9932102 99.97943282 193.50364009 106.97609791 206 114 C206 114.66 206 115.32 206 116 C181.08719273 128.21621884 156.17329759 140.43019452 131.25 152.625 C130.29064545 153.0944101 129.33129089 153.56382019 128.34286499 154.04745483 C120.59673161 157.83753331 112.85037353 161.62715245 105.10400391 165.41674805 C82.29933042 176.57308797 59.49612752 187.73242734 36.6986084 198.90338135 C34.46943969 199.99562499 32.24019367 201.08771086 30.01086426 202.17962646 C27.90202649 203.2125732 25.79338743 204.24592573 23.68496704 205.27972412 C21.71177221 206.24638047 19.73766091 207.21116879 17.76254272 208.17388916 C13.84386198 210.08803572 9.93830499 212.0078724 6.09912109 214.07763672 C5.04934082 214.63854004 3.99956055 215.19944336 2.91796875 215.77734375 C2.08418701 216.24261475 1.25040527 216.70788574 0.39135742 217.18725586 C-3.73245302 218.5888041 -6.87175598 217.51737658 -10.73120117 215.74755859 C-12.12302612 214.95599365 -12.12302612 214.95599365 -13.54296875 214.1484375 C-14.60257813 213.55224609 -15.6621875 212.95605469 -16.75390625 212.34179688 C-17.88699219 211.69275391 -19.02007812 211.04371094 -20.1875 210.375 C-21.39008762 209.69501228 -22.59322325 209.01599293 -23.796875 208.33789062 C-26.29559512 206.92919458 -28.79191198 205.51637218 -31.28662109 204.10058594 C-37.00260442 200.86124976 -42.75302696 197.68391157 -48.5 194.5 C-50.75016146 193.25029068 -53.00016099 192.00028973 -55.25 190.75 C-56.36375 190.13125 -57.4775 189.5125 -58.625 188.875 C-68.75 183.25 -68.75 183.25 -72.12451172 181.37524414 C-74.37610862 180.12437507 -76.62773626 178.87356133 -78.87939453 177.62280273 C-84.48021445 174.51155091 -90.08050905 171.3993613 -95.6796875 168.28515625 C-107.27560228 161.83696065 -118.88020325 155.40503035 -130.5 149 C-143.21838132 141.98941109 -155.91736309 134.94436752 -168.60888672 127.88525391 C-172.11468347 125.93624292 -175.62160541 123.98927112 -179.12890625 122.04296875 C-191.10527937 115.39615595 -203.07498426 108.73863829 -215 102 C-212.75420479 99.50566713 -210.62619231 98.16420688 -207.58984375 96.7578125 C-206.69587891 96.33822266 -205.80191406 95.91863281 -204.88085938 95.48632812 C-203.90955078 95.03708984 -202.93824219 94.58785156 -201.9375 94.125 C-193.22993737 90.03349467 -184.59138468 85.83013514 -176 81.5 C-166.94443065 76.94443751 -157.84214454 72.50834041 -148.68359375 68.1640625 C-141.40844206 64.70161066 -134.19782088 61.12015549 -127 57.5 C-117.94400203 52.94527139 -108.84216357 48.50834943 -99.68359375 44.1640625 C-92.40844206 40.70161066 -85.19782088 37.12015549 -78 33.5 C-68.95280089 28.94969679 -59.8605116 24.51551031 -50.70996094 20.17724609 C-42.09087418 16.07668646 -33.55817362 11.80977923 -25.04101562 7.50195312 C-22.03454576 5.98635763 -19.01777223 4.49292962 -16 3 C-14.99904297 2.48405273 -13.99808594 1.96810547 -12.96679688 1.43652344 C-12.00322266 0.95989258 -11.03964844 0.48326172 -10.046875 -0.0078125 C-8.76828613 -0.65580811 -8.76828613 -0.65580811 -7.46386719 -1.31689453 C-4.24595577 -2.20905824 -2.92672997 -1.50285963 0 0 Z M-12.8359375 33.11328125 C-13.50304749 33.43856812 -14.17015747 33.76385498 -14.85748291 34.09899902 C-17.03377795 35.16262411 -19.2043524 36.23740304 -21.375 37.3125 C-22.88169539 38.05164398 -24.38869619 38.79016572 -25.89599609 39.52807617 C-35.03712757 44.01076417 -44.14936546 48.55173234 -53.24267578 53.13061523 C-60.48513325 56.7695717 -67.79406646 60.25939959 -75.11572266 63.7355957 C-82.45693882 67.23314935 -89.73543603 70.8462125 -97 74.5 C-106.13274161 79.09340675 -115.31163506 83.56962859 -124.54711914 87.95239258 C-134.77321571 92.81756538 -144.89094904 97.89699523 -155 103 C-151.89998545 105.45192627 -148.68040085 107.36990763 -145.21484375 109.265625 C-144.05839355 109.90056885 -142.90194336 110.5355127 -141.71044922 111.18969727 C-140.78954498 111.6925676 -140.78954498 111.6925676 -139.85003662 112.20559692 C-137.23723631 113.63240185 -134.62816105 115.06595869 -132.01879883 116.4990387 C-130.66889431 117.24030646 -129.31879468 117.981219 -127.96850586 118.7217865 C-121.42415447 122.31172904 -114.89786833 125.93365824 -108.375 129.5625 C-106.71658081 130.48446167 -106.71658081 130.48446167 -105.0246582 131.42504883 C-100.57141319 133.90087536 -96.11873308 136.37771701 -91.66601562 138.85449219 C-78.95541384 145.92378826 -66.23729731 152.97893761 -53.5 160 C-43.70015175 165.40197636 -33.90761159 170.81686519 -24.125 176.25 C-23.00802734 176.87003906 -21.89105469 177.49007812 -20.74023438 178.12890625 C-19.17112305 179.00095703 -19.17112305 179.00095703 -17.5703125 179.890625 C-16.59610352 180.42623047 -15.62189453 180.96183594 -14.61816406 181.51367188 C-13.01962615 182.42115964 -11.44129871 183.36725819 -9.90527344 184.37695312 C-7.96031261 185.71023933 -7.96031261 185.71023933 -5 187 C0.0175691 185.76599231 4.51004644 183.3675635 9.08984375 181.03515625 C9.86255112 180.64602051 10.63525848 180.25688477 11.43138123 179.85595703 C13.08104454 179.02493876 14.72985182 178.19221936 16.37786865 177.35794067 C20.68616471 175.1774931 25.0011296 173.01034192 29.31640625 170.84375 C30.16404541 170.41796158 31.01168457 169.99217316 31.88500977 169.55348206 C38.34658136 166.31350085 44.84033437 163.15284615 51.375 160.0625 C59.98847697 155.98778622 68.51580343 151.75978924 77.02734375 147.4765625 C84.70069373 143.62495881 92.43135075 139.90734439 100.18847656 136.22802734 C108.84067944 132.10941279 117.4077289 127.82702983 125.95849609 123.50219727 C132.56946122 120.16953919 139.23498002 117.00797601 146 114 C146 113.34 146 112.68 146 112 C145.33282959 111.64397705 144.66565918 111.2879541 143.97827148 110.92114258 C131.08388517 104.031576 118.25219529 97.06418247 105.54858398 89.82739258 C98.74609726 85.96174474 91.88976102 82.20760443 85 78.5 C76.27024454 73.80006561 67.61444661 68.9868039 58.99609375 64.0859375 C49.98050077 58.96732848 40.90260469 53.96453631 31.81396484 48.97729492 C25.90750659 45.73240403 20.02398574 42.4568899 14.18359375 39.09375 C12.59804688 38.18302734 12.59804688 38.18302734 10.98046875 37.25390625 C9.00089508 36.11291963 7.02538523 34.96484323 5.0546875 33.80859375 C4.17941406 33.30457031 3.30414063 32.80054688 2.40234375 32.28125 C1.26526978 31.61706055 1.26526978 31.61706055 0.10522461 30.93945312 C-4.79350094 28.75340466 -8.45483178 30.92699139 -12.8359375 33.11328125 Z " fill="#DAF9FF" transform="translate(406,124)"/>
<path d="M0 0 C2.89262717 2.73541917 5.10268716 5.46610359 7.25 8.8125 C11.32643107 15.03762931 15.55376466 21.14829446 19.8125 27.25 C24.39459141 33.8200804 28.97211791 40.39242082 33.5 47 C40.6119437 57.37124744 47.81247178 67.68107305 55 78 C68.71732251 97.69356427 68.71732251 97.69356427 74.16796875 105.578125 C74.88811157 106.61815674 74.88811157 106.61815674 75.62280273 107.67919922 C76.52452905 108.99414349 77.41640574 110.3159098 78.29711914 111.64501953 C80.28846955 114.63807482 82.27826839 117.37518742 84.765625 119.9765625 C87.47123029 123.06503646 89.01282086 124.99957406 90 129 C88.72327677 135.07332046 85.40401866 140.46054368 82.29638672 145.76025391 C80.51723493 148.83406531 78.98468551 151.99099204 77.4375 155.1875 C76.62717964 156.79276878 75.81567222 158.39744399 75 160 C71.65707389 156.8980055 69.23755199 153.56424638 66.75 149.75 C66.04359375 148.67234375 65.3371875 147.5946875 64.609375 146.484375 C64.07828125 145.66453125 63.5471875 144.8446875 63 144 C59.5157854 144.58467246 56.65951334 145.47897228 53.49658203 147.04345703 C52.6258757 147.47050934 51.75516937 147.89756165 50.858078 148.33755493 C49.91749039 148.80623993 48.97690277 149.27492493 48.0078125 149.7578125 C46.51094658 150.49479874 46.51094658 150.49479874 44.98384094 151.24667358 C41.69488577 152.86742267 38.4099915 154.4962343 35.125 156.125 C32.83762696 157.25387545 30.54994401 158.38212313 28.26196289 159.50976562 C23.53083375 161.8419208 18.80096206 164.17660003 14.07177734 166.51269531 C7.32227066 169.84415517 0.56357745 173.15655125 -6.19921875 176.4609375 C-7.2486969 176.97375275 -8.29817505 177.48656799 -9.37945557 178.0149231 C-13.40726544 179.98259914 -17.43538567 181.94963925 -21.46356201 183.91656494 C-24.22738722 185.26652322 -26.99069911 186.61752714 -29.75390625 187.96875 C-30.61828308 188.3906662 -31.48265991 188.8125824 -32.37322998 189.24728394 C-36.67385478 191.35120252 -40.95982219 193.47948122 -45.22607422 195.65234375 C-46.47178444 196.28468933 -46.47178444 196.28468933 -47.74266052 196.92980957 C-49.3072887 197.72614796 -50.8693581 198.52754135 -52.42835999 199.33483887 C-57.66796327 202 -57.66796327 202 -61 202 C-60.87693985 202.79656006 -60.7538797 203.59312012 -60.62709045 204.41381836 C-59.46368416 211.94581823 -58.30138185 219.47798727 -57.14029789 227.01034546 C-56.54343442 230.88215301 -55.94615458 234.75389535 -55.34790039 238.62548828 C-54.76983163 242.3665555 -54.19288639 246.10779445 -53.61669731 249.84915161 C-53.39742914 251.27163782 -53.17776627 252.69406326 -52.95768929 254.11642456 C-51.88229105 261.06833951 -50.8149779 268.01224692 -50 275 C-56.33922971 272.99728718 -62.28456965 270.24626951 -68.30566406 267.4597168 C-70.2546851 266.56033805 -72.20918162 265.673665 -74.1640625 264.78710938 C-75.40660608 264.21431347 -76.64880619 263.64077176 -77.890625 263.06640625 C-79.57720215 262.2921228 -79.57720215 262.2921228 -81.29785156 261.50219727 C-84 260 -84 260 -86 257 C-86.51290459 254.47125259 -86.9344663 251.99627795 -87.2890625 249.4453125 C-87.39721283 248.70675018 -87.50536316 247.96818787 -87.61679077 247.20724487 C-87.84383894 245.64600801 -88.0671909 244.08422977 -88.28710938 242.52197266 C-88.62293784 240.13962882 -88.97062396 237.75925092 -89.3203125 235.37890625 C-89.53976632 233.85947649 -89.7585387 232.33994812 -89.9765625 230.8203125 C-90.13120468 229.75757614 -90.13120468 229.75757614 -90.28897095 228.67337036 C-90.79084956 225.0792632 -91.04259079 221.62450063 -91 218 C-91.57993713 218.28592514 -92.15987427 218.57185028 -92.75738525 218.86643982 C-98.78958208 221.83953548 -104.82442542 224.8072057 -110.86083984 227.77172852 C-113.11380357 228.8790597 -115.36608704 229.98777606 -117.61767578 231.09790039 C-120.85271538 232.6926081 -124.09016244 234.28233106 -127.328125 235.87109375 C-128.33554749 236.36902939 -129.34296997 236.86696503 -130.38092041 237.37998962 C-131.32159363 237.84039139 -132.26226685 238.30079315 -133.23144531 238.77514648 C-134.05751282 239.1815184 -134.88358032 239.58789032 -135.73468018 240.00657654 C-137.82213151 240.92199833 -139.77532177 241.52819828 -142 242 C-141.88088488 237.99796184 -141.75658828 233.99611994 -141.62768555 229.99438477 C-141.58462706 228.6357042 -141.54293435 227.27697959 -141.50268555 225.91821289 C-141.44427107 223.95447697 -141.38038197 221.99090636 -141.31640625 220.02734375 C-141.27974854 218.84906006 -141.24309082 217.67077637 -141.20532227 216.45678711 C-141.10368774 214.74567749 -141.10368774 214.74567749 -141 213 C-140.99379639 211.79649902 -140.98759277 210.59299805 -140.98120117 209.35302734 C-139.91375902 205.70529146 -139.67797685 205.39329386 -136.61621094 203.55737305 C-135.08537919 202.7863802 -133.53995679 202.04396948 -131.984375 201.32421875 C-131.13977722 200.90750412 -130.29517944 200.49078949 -129.42498779 200.06144714 C-127.58767553 199.15820973 -125.74462885 198.26656597 -123.89672852 197.38519287 C-120.9916458 195.99600509 -118.10663432 194.57160545 -115.22460938 193.13525391 C-108.91506959 189.99607559 -102.58330152 186.90338558 -96.25 183.8125 C-93.90693541 182.66635943 -91.56400164 181.5199514 -89.22119141 180.37329102 C-84.44736715 178.03735542 -79.67278128 175.70299208 -74.89746094 173.37011719 C-68.55785657 170.27301537 -62.21994846 167.17246139 -55.8828125 164.0703125 C-53.95068403 163.12459222 -52.01855512 162.17887281 -50.08642578 161.2331543 C-49.14188538 160.7708139 -48.19734497 160.30847351 -47.22418213 159.8321228 C-42.46205895 157.50115017 -37.69984413 155.17036492 -32.9375 152.83984375 C-31.98481232 152.37361099 -31.03212463 151.90737823 -30.05056763 151.42701721 C-23.60556848 148.27344596 -17.15876828 145.12357774 -10.71127319 141.97511292 C-6.05995139 139.70314885 -1.40967623 137.42904793 3.24041748 135.15457153 C5.46493404 134.06710454 7.68989669 132.98054952 9.91534424 131.89498901 C21.05446223 126.46096463 32.17135608 121.03538038 43 115 C42.40574219 114.175 41.81148437 113.35 41.19921875 112.5 C36.23203446 105.58555757 31.33951735 98.62636454 26.53222656 91.59985352 C23.73858175 87.52006877 20.92695206 83.4536016 18.09765625 79.3984375 C17.06632568 77.92008423 17.06632568 77.92008423 16.01416016 76.41186523 C14.68046603 74.50163769 13.34560465 72.59222428 12.00927734 70.68383789 C10.70864215 68.82023379 9.42298064 66.94610561 8.15112305 65.06274414 C6.57435068 62.81775387 4.97937191 60.72493225 3.24926758 58.60717773 C-3.48333373 50.04026631 -5.11750243 43.82855534 -3.86132812 33.01757812 C-3.6381528 31.40735267 -3.41353452 29.79732658 -3.1875 28.1875 C-3.00058604 26.55853915 -2.81891962 24.92896737 -2.64257812 23.29882812 C-2.22274849 19.5111249 -1.74619023 15.733711 -1.2489624 11.95550537 C-0.7427195 7.9791591 -0.37523531 3.99040565 0 0 Z " fill="#568299" transform="translate(529,459)"/>
<path d="M0 0 C20.47319639 10.74931209 40.62606937 22.11501939 60.83300781 33.35375977 C69.04584285 37.91983304 77.2704349 42.46418651 85.5 47 C98.2345355 54.0192977 110.94957235 61.07324766 123.65722656 68.14111328 C129.2704614 71.26258349 134.8853163 74.3811369 140.5 77.5 C142.75000768 78.74998618 145.00000768 79.99998618 147.25 81.25 C148.36375 81.86875 149.4775 82.4875 150.625 83.125 C187.75 103.75 187.75 103.75 191.12451172 105.62475586 C193.37610862 106.87562493 195.62773626 108.12643867 197.87939453 109.37719727 C203.48021445 112.48844909 209.08050905 115.6006387 214.6796875 118.71484375 C216.91143539 119.95577043 219.14320621 121.19665587 221.375 122.4375 C223.01722534 123.35088135 223.01722534 123.35088135 224.69262695 124.28271484 C230.74171639 127.64425066 236.7979235 130.99215386 242.86328125 134.32421875 C244.1824601 135.04955024 245.50163332 135.77489196 246.82080078 136.50024414 C249.33207904 137.88094051 251.84499236 139.25859545 254.35888672 140.63452148 C260.35484236 143.92988924 266.24635748 147.29666906 272 151 C271.85980449 155.31270236 271.71181808 159.62510461 271.5625 163.9375 C271.50352539 165.75604492 271.50352539 165.75604492 271.44335938 167.61132812 C271.2138853 174.12486148 270.82995185 180.53474481 270 187 C256.54639805 180.55133628 243.56216459 173.27716221 230.55224609 165.98779297 C224.87690668 162.80948654 219.18754763 159.65638799 213.5 156.5 C211.24732666 155.24882246 208.99472258 153.9975202 206.7421875 152.74609375 C205.62811523 152.12718262 204.51404297 151.50827148 203.36621094 150.87060547 C200.01716178 149.00953681 196.66866616 147.14747587 193.3203125 145.28515625 C181.72439772 138.83696065 170.11979675 132.40503035 158.5 126 C145.76554692 118.98055206 133.05042839 111.92675275 120.34277344 104.85888672 C114.7295386 101.73741651 109.1146837 98.6188631 103.5 95.5 C101.24999232 94.25001382 98.99999232 93.00001382 96.75 91.75 C95.63625 91.13125 94.5225 90.5125 93.375 89.875 C81 83 68.625 76.125 56.25 69.25 C55.13488037 68.6305249 54.01976074 68.0110498 52.87084961 67.37280273 C50.63456124 66.13034832 48.39839464 64.88767471 46.16235352 63.64477539 C40.94462323 60.74485189 35.72579276 57.84697524 30.50241089 54.95724487 C28.06589174 53.60910701 25.63008917 52.25967732 23.19433594 50.91015625 C21.49873926 49.97140456 19.80212273 49.03449567 18.10546875 48.09765625 C16.03796963 46.95187472 13.97542364 45.79709536 11.91870117 44.63208008 C9.97552448 43.54549403 8.01148816 42.4953887 6.02856445 41.4831543 C3.49188552 40.12863006 1.21204637 38.83705352 -1 37 C-2.01171875 33.65234375 -2.01171875 33.65234375 -1.6875 29.9375 C-1.64496094 29.2671875 -1.60242188 28.596875 -1.55859375 27.90625 C-1.46219507 26.42545915 -1.34438657 24.94595182 -1.20849609 23.46826172 C-0.89660037 19.77591309 -0.77047555 16.0790823 -0.62036133 12.37719727 C-0.44769249 8.24960648 -0.22622257 4.12495206 0 0 Z " fill="#99BFD2" transform="translate(130,223)"/>
<path d="M0 0 C1.20577882 2.41155764 1.05884324 3.72504787 0.93843269 6.40971279 C0.89923969 7.34249442 0.86004669 8.27527604 0.81966603 9.23632377 C0.77074393 10.26809386 0.72182183 11.29986394 0.67141724 12.36289978 C0.6239746 13.45376202 0.57653196 14.54462425 0.52765167 15.66854292 C0.36622287 19.34950871 0.19698876 23.03007519 0.02783203 26.71069336 C-0.0890876 29.3402046 -0.20553152 31.96973704 -0.3215332 34.59928894 C-0.60564337 41.01984633 -0.89551795 47.44013137 -1.18723069 53.86034732 C-1.52720237 61.34826305 -1.86116361 68.83644316 -2.19478561 76.32464404 C-2.79107242 89.70449891 -3.39232905 103.08412575 -3.99658203 116.46362305 C-4.58152032 129.41564225 -5.1638029 142.3677766 -5.74267578 155.32006836 C-5.77821705 156.11528906 -5.81375832 156.91050976 -5.85037659 157.72982805 C-5.99327524 160.9273137 -6.13616158 164.1247999 -6.27903002 167.3222869 C-6.93187912 181.93237465 -7.58676573 196.54237121 -8.2421875 211.15234375 C-8.27527879 211.89008265 -8.30837009 212.62782155 -8.34246415 213.38791618 C-8.7577233 222.64504784 -9.17396198 231.90213462 -9.59178162 241.15915108 C-9.70770944 243.72964011 -9.82340235 246.30013976 -9.93883133 248.87065125 C-9.9929858 250.07615128 -10.04714027 251.28165131 -10.10293579 252.52368164 C-10.15533141 253.69097404 -10.20772704 254.85826643 -10.26171041 256.06093132 C-10.41200418 259.35887978 -10.56927726 262.65644152 -10.72706223 265.95403862 C-10.91292101 269.88739907 -11.06061029 273.81904297 -11.17360306 277.75514412 C-11.20458403 278.63882937 -11.235565 279.52251462 -11.26748478 280.43297821 C-11.32376394 282.05218091 -11.36735146 283.6719013 -11.39508903 285.29184431 C-11.52187637 288.56958271 -11.70824558 290.60165862 -13.67323112 293.28451443 C-15.82176609 294.89446147 -17.77312264 295.69980605 -20.3125 296.5625 C-22.03689898 297.29975145 -23.76084191 298.03807031 -25.484375 298.77734375 C-26.38478516 299.1316748 -27.28519531 299.48600586 -28.21289062 299.85107422 C-32.97529753 301.81427384 -37.49339228 304.25427199 -42.0625 306.625 C-43.73754716 307.47794197 -45.41568518 308.32485674 -47.09765625 309.1640625 C-48.15738647 309.69700928 -48.15738647 309.69700928 -49.23852539 310.24072266 C-51 311 -51 311 -53 311 C-54.23830358 309.34285844 -55.38848228 307.61971839 -56.5 305.875 C-59.72178787 300.91202531 -63.0459875 296.05423985 -66.5 291.25 C-66.94537109 290.6297998 -67.39074219 290.00959961 -67.84960938 289.37060547 C-68.898157 287.91259753 -69.94883499 286.45612203 -71 285 C-67.91323921 282.47660415 -64.84277719 280.94331992 -61.17578125 279.3984375 C-60.06525391 278.90730469 -58.95472656 278.41617187 -57.81054688 277.91015625 C-55.47719102 276.88613743 -53.13318136 275.88606192 -50.77929688 274.91015625 C-49.67263672 274.41128906 -48.56597656 273.91242188 -47.42578125 273.3984375 C-45.90078003 272.74367432 -45.90078003 272.74367432 -44.3449707 272.07568359 C-41.688829 269.72456264 -41.67020074 269.36411577 -41.3870554 266.0216074 C-41.31663033 265.21306722 -41.24620526 264.40452704 -41.17364609 263.57148564 C-40.88128419 259.24196442 -40.64789703 254.91401159 -40.46214294 250.57859802 C-40.41636944 249.56635432 -40.37059594 248.55411061 -40.32343537 247.51119286 C-40.17169631 244.139662 -40.0242039 240.76795922 -39.87670898 237.39624023 C-39.76844476 234.97128676 -39.65991751 232.54634502 -39.55114746 230.12141418 C-39.31803002 224.91109782 -39.08673328 219.70070406 -38.85711479 214.49023247 C-38.52512729 206.95688935 -38.18982193 199.42369674 -37.85372282 191.89053608 C-37.30843117 179.6666292 -36.76579975 167.44260575 -36.22485352 155.21850586 C-35.69956338 143.34832608 -35.17301276 131.47820331 -34.64477539 119.6081543 C-34.59588405 118.5094997 -34.59588405 118.5094997 -34.546005 117.38865005 C-34.38247141 113.71400332 -34.21891312 110.03935768 -34.05534256 106.3647126 C-32.69973392 75.9099778 -31.34861261 45.45504545 -30 15 C-20.1 10.05 -10.2 5.1 0 0 Z " fill="#568299" transform="translate(671,277)"/>
<path d="M0 0 C11.60267698 5.52987204 22.72191466 11.85115229 33.87890625 18.22119141 C39.22307578 21.26700016 44.58104073 24.28837509 49.9375 27.3125 C51.88417548 28.41265268 53.83079585 29.51290286 55.77734375 30.61328125 C56.59452881 31.07516846 57.41171387 31.53705566 58.25366211 32.01293945 C58.82995361 32.33866943 59.40624512 32.66439941 60 33 C60.14213992 45.48409631 59.76633689 57.91562288 59.20043945 70.38647461 C59.06160381 73.45732253 58.92983373 76.52841845 58.79882812 79.59960938 C58.71135274 81.58595583 58.62347644 83.57228468 58.53515625 85.55859375 C58.49656998 86.45984482 58.4579837 87.36109589 58.41822815 88.28965759 C58.14439578 94.21857509 57.64795077 100.10039911 57 106 C43.65911077 99.59095162 30.83796362 92.35482162 18 85 C15.95334679 83.83164264 13.90647318 82.66367129 11.859375 81.49609375 C6.90370578 78.66849782 1.95075745 75.83618615 -3 73 C-3.1337994 60.29797705 -2.79266084 47.65338606 -2.20043945 34.96533203 C-2.06137413 31.97579673 -1.92968215 28.98599862 -1.79882812 25.99609375 C-1.7113683 24.05987633 -1.6234927 22.12367763 -1.53515625 20.1875 C-1.49656998 19.31125977 -1.4579837 18.43501953 -1.41822815 17.53222656 C-1.13970432 11.66375022 -0.63828524 5.84009315 0 0 Z " fill="#3C9ECC" transform="translate(335,486)"/>
<path d="M0 0 C11.60267698 5.52987204 22.72191466 11.85115229 33.87890625 18.22119141 C39.22307578 21.26700016 44.58104073 24.28837509 49.9375 27.3125 C51.88417548 28.41265268 53.83079585 29.51290286 55.77734375 30.61328125 C56.59452881 31.07516846 57.41171387 31.53705566 58.25366211 32.01293945 C58.82995361 32.33866943 59.40624512 32.66439941 60 33 C60.13937007 45.32444403 59.77381404 57.59354724 59.20043945 69.90429688 C59.06172321 72.89172917 58.92986674 75.87940957 58.79882812 78.8671875 C58.71133937 80.80470569 58.62346248 82.7422064 58.53515625 84.6796875 C58.47727684 85.99101151 58.47727684 85.99101151 58.41822815 87.3288269 C58.12304414 93.57161352 57.60856259 99.7802423 57 106 C47.07810304 101.18261595 37.42998149 95.97416992 27.81542969 90.57470703 C24.51008301 88.72598295 21.1969382 86.89151066 17.8828125 85.05859375 C16.64084949 84.37112924 15.39890617 83.68362918 14.15698242 82.99609375 C12.30050364 81.96834097 10.4438116 80.94098611 8.58633423 79.91503906 C6.84704501 78.95405723 5.10904088 77.99075064 3.37109375 77.02734375 C2.35974365 76.46781006 1.34839355 75.90827637 0.30639648 75.33178711 C-2 74 -2 74 -3 73 C-3.1033335 70.4473728 -3.13731624 67.92792313 -3.12109375 65.375 C-3.11822861 64.57739258 -3.11536346 63.77978516 -3.1124115 62.95800781 C-3.04210851 53.61863323 -2.63584421 44.29366629 -2.20043945 34.96533203 C-2.06137413 31.97579673 -1.92968215 28.98599862 -1.79882812 25.99609375 C-1.7113683 24.05987633 -1.6234927 22.12367763 -1.53515625 20.1875 C-1.49656998 19.31125977 -1.4579837 18.43501953 -1.41822815 17.53222656 C-1.13970432 11.66375022 -0.63828524 5.84009315 0 0 Z " fill="#3C9ECC" transform="translate(124,369)"/>
<path d="M0 0 C2.89262717 2.73541917 5.10268716 5.46610359 7.25 8.8125 C11.32643107 15.03762931 15.55376466 21.14829446 19.8125 27.25 C24.39459141 33.8200804 28.97211791 40.39242082 33.5 47 C40.6119437 57.37124744 47.81247178 67.68107305 55 78 C68.71732251 97.69356427 68.71732251 97.69356427 74.16796875 105.578125 C74.64806396 106.27147949 75.12815918 106.96483398 75.62280273 107.67919922 C76.52452905 108.99414349 77.41640574 110.3159098 78.29711914 111.64501953 C80.28846955 114.63807482 82.27826839 117.37518742 84.765625 119.9765625 C87.47123029 123.06503646 89.01282086 124.99957406 90 129 C88.72327677 135.07332046 85.40401866 140.46054368 82.29638672 145.76025391 C80.51723493 148.83406531 78.98468551 151.99099204 77.4375 155.1875 C76.62717964 156.79276878 75.81567222 158.39744399 75 160 C72.22031472 157.34765731 69.9577777 154.68925488 67.8203125 151.5 C67.22831055 150.6229541 66.63630859 149.7459082 66.02636719 148.84228516 C65.39891602 147.90433105 64.77146484 146.96637695 64.125 146 C62.77971288 144.00709179 61.43333448 142.01491985 60.0859375 140.0234375 C59.40499023 139.01635742 58.72404297 138.00927734 58.02246094 136.97167969 C54.97420686 132.49276267 51.8664699 128.0566098 48.75 123.625 C44.23854735 117.20317447 39.75916826 110.76178683 35.32324219 104.28759766 C31.24316732 98.33909111 27.12277434 92.41896787 23 86.5 C18.32078389 79.7794635 13.64388888 73.05751439 9 66.3125 C8.60425781 65.73886719 8.20851563 65.16523437 7.80078125 64.57421875 C6.99918263 63.40777291 6.21183666 62.23143434 5.43725586 61.046875 C3.9599387 58.87196177 3.9599387 58.87196177 1.87719727 56.53125 C-4.40168471 48.64395424 -4.72726627 42.86921789 -3.68554688 33.28125 C-3.47897932 31.64569216 -3.27128966 30.01027566 -3.0625 28.375 C-2.88579193 26.7322153 -2.71323924 25.0889781 -2.54492188 23.4453125 C-2.14462058 19.6176393 -1.69880582 15.79731848 -1.23468018 11.97692871 C-0.76148496 7.99076667 -0.38495661 3.99544442 0 0 Z " fill="#B2CBD9" transform="translate(529,459)"/>
<path d="M0 0 C-0.47866262 22.29086851 -1.41085377 44.56244864 -2.39883041 66.8354454 C-2.49986373 69.12191599 -2.59965092 71.40843799 -2.6991272 73.69497681 C-2.85873723 77.35733657 -3.02192277 81.01952081 -3.18782997 84.68160057 C-3.27880364 86.70344352 -3.36688174 88.7254161 -3.45487976 90.74739075 C-3.6124744 94.16680448 -3.79868389 97.58292442 -4 101 C-4.03451767 101.84143051 -4.06903534 102.68286102 -4.104599 103.54978943 C-4.33670748 106.85078621 -4.53711963 108.56844025 -7.00610352 110.87036133 C-7.87162842 111.2702124 -8.73715332 111.67006348 -9.62890625 112.08203125 C-10.58216797 112.53900391 -11.53542969 112.99597656 -12.51757812 113.46679688 C-13.52240234 113.91087891 -14.52722656 114.35496094 -15.5625 114.8125 C-16.54025391 115.27591797 -17.51800781 115.73933594 -18.52539062 116.21679688 C-23.9327534 118.74844227 -29.4019002 120.93265815 -35 123 C-34.41035496 101.62364718 -33.64969063 80.26044144 -32.69775391 58.8972168 C-32.52926205 55.11348714 -32.36592645 51.32955248 -32.2037735 47.54554653 C-32.07563097 44.57106976 -31.94449137 41.59673073 -31.81248474 38.62242317 C-31.75088948 37.22516314 -31.69028206 35.82785914 -31.63075256 34.43050957 C-31.45334756 30.2847573 -31.24398059 26.14235726 -31 22 C-30.93619141 20.72568619 -30.93619141 20.72568619 -30.87109375 19.42562866 C-30.62974042 16.36488866 -30.47098232 14.48412476 -28.28515625 12.23730469 C-27.55167969 11.88571289 -26.81820313 11.53412109 -26.0625 11.171875 C-25.24910156 10.76453125 -24.43570312 10.3571875 -23.59765625 9.9375 C-22.74042969 9.545625 -21.88320313 9.15375 -21 8.75 C-20.17371094 8.34265625 -19.34742188 7.9353125 -18.49609375 7.515625 C-16.01404498 6.30373264 -13.51359184 5.14486253 -11 4 C-10.154375 3.60876953 -9.30875 3.21753906 -8.4375 2.81445312 C-2.26449912 0 -2.26449912 0 0 0 Z " fill="#568299" transform="translate(427,469)"/>
<path d="M0 0 C20.57793347 9.86354238 40.43581984 21.27252952 60 33 C59.88111835 37.16276918 59.75683224 41.32533257 59.62768555 45.48779297 C59.58455749 46.90181165 59.54286832 48.31587502 59.50268555 49.72998047 C59.4444425 51.7706444 59.38090859 53.81108795 59.31640625 55.8515625 C59.27974854 57.07697754 59.24309082 58.30239258 59.20532227 59.56494141 C59.01327887 62.77784342 58.5944606 65.83941587 58 69 C46.79094583 63.62720681 35.85999359 57.76457319 25.04638672 51.63696289 C19.90932873 48.72634908 14.79210456 45.85466555 9.484375 43.265625 C-1.2663016 37.88974717 -1.2663016 37.88974717 -3.05859375 33.2734375 C-3.12053054 30.45349177 -2.83102859 27.91974526 -2.31689453 25.15234375 C-1.64079579 20.56028942 -1.70176151 15.88361038 -1.5625 11.25 C-1.48855581 9.31738197 -1.40710124 7.38502941 -1.31640625 5.453125 C-1.27974854 4.61942383 -1.24309082 3.78572266 -1.20532227 2.92675781 C-1 1 -1 1 0 0 Z " fill="#7BB6D5" transform="translate(126,333)"/>
<path d="M0 0 C13.34088923 6.40904838 26.16203638 13.64517838 39 21 C41.04665321 22.16835736 43.09352682 23.33632871 45.140625 24.50390625 C50.09629422 27.33150218 55.04924255 30.16381385 60 33 C60.06488735 41.1001037 59.88725551 49.15949985 59.5 57.25 C59.45230469 58.29285156 59.40460938 59.33570313 59.35546875 60.41015625 C59.23941044 62.94022736 59.12089746 65.47015632 59 68 C58.01 68.495 58.01 68.495 57 69 C54.56762695 67.94287109 54.56762695 67.94287109 51.48828125 66.2734375 C49.77850098 65.35280518 49.77850098 65.35280518 48.03417969 64.41357422 C46.79342409 63.73440688 45.55286859 63.05487387 44.3125 62.375 C43.04743727 61.68852837 41.78213564 61.00249683 40.51660156 60.31689453 C17.73804375 47.94420073 17.73804375 47.94420073 8.36499023 42.32910156 C6.04643749 40.95194374 6.04643749 40.95194374 3.59008789 40.06933594 C1.04691286 38.96406833 -0.31111987 38.21625849 -2 36 C-2.88017567 30.78311718 -2.47277689 25.73563191 -2.0625 20.5 C-1.98265252 19.07181534 -1.90644376 17.64342231 -1.83398438 16.21484375 C-1.53117042 10.74353445 -1.20567038 5.35966612 0 0 Z " fill="#AEC7D5" transform="translate(332,559)"/>
<path d="M0 0 C10.62420057 5.1818308 21.01444505 10.68598456 31.31152344 16.48876953 C34.4246573 18.23870584 37.54412264 19.97707175 40.6640625 21.71484375 C42.9636016 22.99728838 45.26308111 24.27983985 47.5625 25.5625 C48.67616943 26.1827002 49.78983887 26.80290039 50.93725586 27.44189453 C51.96987549 28.0192334 53.00249512 28.59657227 54.06640625 29.19140625 C54.99396729 29.70904541 55.92152832 30.22668457 56.87719727 30.76000977 C59 32 59 32 60 33 C60.5322946 40.81220606 59.91764075 48.80921172 59.625 56.625 C59.59422363 57.60944092 59.56344727 58.59388184 59.53173828 59.6081543 C59.49290527 60.534104 59.45407227 61.46005371 59.4140625 62.4140625 C59.3826416 63.2488916 59.3512207 64.0837207 59.31884766 64.94384766 C59 67 59 67 57 69 C44.10065885 62.11650905 31.22785955 55.19695479 18.5 48 C17.58919678 47.48542236 16.67839355 46.97084473 15.73999023 46.44067383 C9.77155835 43.05035783 3.8707944 39.55652851 -2 36 C-1.88133375 31.67650376 -1.7570589 27.3532153 -1.62768555 23.0300293 C-1.58449295 21.56067232 -1.54280744 20.0912702 -1.50268555 18.62182617 C-1.44460118 16.50425645 -1.38101902 14.38691063 -1.31640625 12.26953125 C-1.27974854 10.99698486 -1.24309082 9.72443848 -1.20532227 8.41333008 C-1.0299208 5.49741104 -0.66607117 2.83732095 0 0 Z " fill="#AEC7D5" transform="translate(121,442)"/>
<path d="M0 0 C13.34088923 6.40904838 26.16203638 13.64517838 39 21 C41.04665321 22.16835736 43.09352682 23.33632871 45.140625 24.50390625 C50.09629422 27.33150218 55.04924255 30.16381385 60 33 C59.88133375 37.32349624 59.7570589 41.6467847 59.62768555 45.9699707 C59.58449295 47.43932768 59.54280744 48.9087298 59.50268555 50.37817383 C59.44460118 52.49574355 59.38101902 54.61308937 59.31640625 56.73046875 C59.27974854 58.00301514 59.24309082 59.27556152 59.20532227 60.58666992 C59.0299208 63.50258896 58.66607117 66.16267905 58 69 C45.58966712 63.05140246 33.55101363 56.45361952 21.578125 49.67578125 C17.59127451 47.42151787 13.58881066 45.26217959 9.484375 43.23046875 C-1.22492108 37.80756413 -1.22492108 37.80756413 -3.05859375 33.53125 C-3.13939075 30.22332569 -2.5610201 27.26653124 -2 24 C-1.76992053 19.94027999 -1.67890049 15.876869 -1.5625 11.8125 C-1.48847171 9.77703693 -1.40699118 7.74182472 -1.31640625 5.70703125 C-1.27974854 4.8250708 -1.24309082 3.94311035 -1.20532227 3.03442383 C-1 1 -1 1 0 0 Z " fill="#7BB6D5" transform="translate(337,450)"/>
<path d="M0 0 C4.16789869 1.27696831 7.79776587 2.84650285 11.58203125 5.00390625 C12.59587891 5.57947266 13.60972656 6.15503906 14.65429688 6.74804688 C15.69650391 7.34681641 16.73871094 7.94558594 17.8125 8.5625 C18.87404297 9.16513672 19.93558594 9.76777344 21.02929688 10.38867188 C28.84284319 14.84284319 28.84284319 14.84284319 30 16 C30.71512708 26.50367962 29.67100292 37.29005121 29.20043945 47.78955078 C29.06313203 50.86086256 28.93067645 53.9323558 28.79882812 57.00390625 C28.34734217 67.34949199 27.83243784 77.67687452 27 88 C22.83210131 86.72303169 19.20223413 85.15349715 15.41796875 82.99609375 C14.40412109 82.42052734 13.39027344 81.84496094 12.34570312 81.25195312 C11.30349609 80.65318359 10.26128906 80.05441406 9.1875 79.4375 C8.12595703 78.83486328 7.06441406 78.23222656 5.97070312 77.61132812 C-1.84284319 73.15715681 -1.84284319 73.15715681 -3 72 C-3.10351326 69.46034562 -3.13728471 66.95403816 -3.12109375 64.4140625 C-3.11822861 63.61779449 -3.11536346 62.82152649 -3.1124115 62.00112915 C-3.04074347 52.46888211 -2.6325415 42.94981771 -2.20043945 33.42822266 C-2.06111255 30.34428942 -1.92959339 27.2600882 -1.79882812 24.17578125 C-1.71139565 22.1874798 -1.6235213 20.19919772 -1.53515625 18.2109375 C-1.49656998 17.30250092 -1.4579837 16.39406433 -1.41822815 15.45809937 C-1.17716098 10.25715947 -0.71577576 5.1576307 0 0 Z " fill="#3C9ECC" transform="translate(243,473)"/>
<path d="M0 0 C3.97014192 23.95674231 7.53674318 47.96524876 11 72 C4.66077029 69.99728718 -1.28456965 67.24626951 -7.30566406 64.4597168 C-9.2546851 63.56033805 -11.20918162 62.673665 -13.1640625 61.78710938 C-14.40660608 61.21431347 -15.64880619 60.64077176 -16.890625 60.06640625 C-18.01500977 59.55021729 -19.13939453 59.03402832 -20.29785156 58.50219727 C-23 57 -23 57 -25 54 C-25.51294638 51.48291189 -25.93451008 49.01988961 -26.2890625 46.48046875 C-26.39721283 45.74427811 -26.50536316 45.00808746 -26.61679077 44.24958801 C-26.84386468 42.69255247 -27.06721523 41.13497002 -27.28710938 39.5769043 C-27.62245998 37.20546184 -27.97039554 34.83612895 -28.3203125 32.46679688 C-28.53981459 30.95062953 -28.75858815 29.43435649 -28.9765625 27.91796875 C-29.07965729 27.21463913 -29.18275208 26.51130951 -29.28897095 25.78666687 C-29.84214372 21.82567258 -30.10208818 17.99819402 -30 14 C-26.05154255 12.00108867 -22.10050563 10.00740115 -18.14697266 8.01855469 C-16.80184612 7.34095653 -15.45744044 6.66192541 -14.11376953 5.98144531 C-12.18448716 5.00470162 -10.25268782 4.03310723 -8.3203125 3.0625 C-7.15773926 2.47597656 -5.99516602 1.88945313 -4.79736328 1.28515625 C-2 0 -2 0 0 0 Z " fill="#6EA3C0" transform="translate(468,662)"/>
<path d="M0 0 C10.22605703 4.93256869 20.10927936 10.43357907 30 16 C29.88115471 20.30518014 29.75687035 24.61015967 29.62768555 28.91503906 C29.58454663 30.37756148 29.54285805 31.84012747 29.50268555 33.30273438 C29.4444693 35.4128936 29.38092712 37.52283775 29.31640625 39.6328125 C29.27974854 40.90012207 29.24309082 42.16743164 29.20532227 43.47314453 C29.01628964 46.72019016 28.6037927 49.80698948 28 53 C17.77394297 48.06743131 7.89072064 42.56642093 -2 37 C-1.88155392 32.37336673 -1.75729228 27.74693958 -1.62768555 23.12060547 C-1.58442662 21.54740626 -1.54274526 19.97416283 -1.50268555 18.40087891 C-1.44476338 16.13690885 -1.38113286 13.87315949 -1.31640625 11.609375 C-1.29969376 10.90818542 -1.28298126 10.20699585 -1.26576233 9.48455811 C-1.16648978 6.19766179 -0.99187328 3.14857995 0 0 Z " fill="#99BFD2" transform="translate(240,545)"/>
<path d="M0 0 C8.06710002 3.93925923 16.09735934 7.93507092 23.9375 12.3125 C25.65259766 13.26576172 25.65259766 13.26576172 27.40234375 14.23828125 C30 16 30 16 31 19 C31.02717219 20.64585832 30.99042273 22.29318949 30.9140625 23.9375 C30.87023437 24.91589844 30.82640625 25.89429688 30.78125 26.90234375 C30.7296875 27.92457031 30.678125 28.94679688 30.625 30 C30.58117187 30.99128906 30.53734375 31.98257812 30.4921875 33.00390625 C30.17839062 39.68952313 29.66042763 46.34000528 29 53 C18.77814265 48.0328162 8.86023971 42.6472282 -1 37 C-1.17327227 24.63991137 -0.63594729 12.34177486 0 0 Z " fill="#4DA4CE" transform="translate(152,422)"/>
<path d="M0 0 C7.68231672 4.04558976 15.33353458 8.13374213 22.875 12.4375 C23.47521973 12.77910156 24.07543945 13.12070312 24.69384766 13.47265625 C28.87203618 15.87203618 28.87203618 15.87203618 30 17 C30.09966217 18.55472978 30.13080561 20.11395549 30.1328125 21.671875 C30.13571289 23.12581665 30.13571289 23.12581665 30.13867188 24.60913086 C30.13416016 25.64561768 30.12964844 26.68210449 30.125 27.75 C30.12306641 28.7922876 30.12113281 29.8345752 30.11914062 30.90844727 C30.07770324 38.31595494 29.7920983 45.63065684 29 53 C25.26622292 51.58516215 21.80545678 49.89943254 18.296875 47.99609375 C17.2346875 47.42052734 16.1725 46.84496094 15.078125 46.25195312 C13.43070312 45.35379883 13.43070312 45.35379883 11.75 44.4375 C10.63625 43.83486328 9.5225 43.23222656 8.375 42.61132812 C0.13411632 38.13411632 0.13411632 38.13411632 -1 37 C-1.10396101 34.36428265 -1.14034102 31.76091675 -1.125 29.125 C-1.12209961 27.93704834 -1.12209961 27.93704834 -1.11914062 26.72509766 C-1.05616244 17.80143907 -0.55283755 8.90463346 0 0 Z " fill="#4DA4CE" transform="translate(333,522)"/>
<path d="M0 0 C4.16789869 1.27696831 7.79776587 2.84650285 11.58203125 5.00390625 C12.59587891 5.57947266 13.60972656 6.15503906 14.65429688 6.74804688 C15.69650391 7.34681641 16.73871094 7.94558594 17.8125 8.5625 C18.87404297 9.16513672 19.93558594 9.76777344 21.02929688 10.38867188 C28.84284319 14.84284319 28.84284319 14.84284319 30 16 C30.09953703 17.46995535 30.13080388 18.94464859 30.1328125 20.41796875 C30.13571289 21.79637939 30.13571289 21.79637939 30.13867188 23.20263672 C30.13416016 24.1876416 30.12964844 25.17264648 30.125 26.1875 C30.12306641 27.18023926 30.12113281 28.17297852 30.11914062 29.19580078 C30.07454494 36.83529019 29.72701542 44.39230292 29 52 C24.83210131 50.72303169 21.20223413 49.15349715 17.41796875 46.99609375 C16.40412109 46.42052734 15.39027344 45.84496094 14.34570312 45.25195312 C13.30349609 44.65318359 12.26128906 44.05441406 11.1875 43.4375 C10.12595703 42.83486328 9.06441406 42.23222656 7.97070312 41.61132812 C0.15715681 37.15715681 0.15715681 37.15715681 -1 36 C-1.10369723 33.34352106 -1.1403849 30.71914302 -1.125 28.0625 C-1.12306641 27.2679541 -1.12113281 26.4734082 -1.11914062 25.65478516 C-1.0585703 17.08576656 -0.56584777 8.54834305 0 0 Z " fill="#4DA4CE" transform="translate(241,509)"/>
<path d="M0 0 C4.10310586 3.83868348 6.90914451 8.20156848 9.95703125 12.890625 C11.22709244 14.82364356 12.53149952 16.73507594 13.88671875 18.609375 C14.43972656 19.37765625 14.99273438 20.1459375 15.5625 20.9375 C16.05878906 21.60652344 16.55507813 22.27554687 17.06640625 22.96484375 C18.3424303 25.74646939 17.79209787 27.05568882 17 30 C16.07757032 32.08524595 15.0903144 34.14239007 14.05859375 36.17578125 C13.47529297 37.33271484 12.89199219 38.48964844 12.29101562 39.68164062 C11.67330794 40.89199387 11.05546773 42.1022795 10.4375 43.3125 C9.81520144 44.54203759 9.19345082 45.77185267 8.57226562 47.00195312 C7.05354488 50.00407552 5.5292898 53.00325153 4 56 C0.14124814 54.71374938 -1.01224745 53.34159657 -3.05957031 49.89355469 C-5.24268331 43.17645832 -3.63223864 35.53413128 -2.875 28.625 C-2.71354771 26.96379213 -2.55467192 25.30233173 -2.3984375 23.640625 C-2.02776559 19.75945494 -1.62807505 15.8821699 -1.21325684 12.00549316 C-0.92381509 9.28354791 -0.65242721 6.55990964 -0.3828125 3.8359375 C-0.19332031 1.93714844 -0.19332031 1.93714844 0 0 Z " fill="#91C0DA" transform="translate(529,459)"/>
</svg>
